<?xml version="1.0" encoding="UTF-8" standalone="no"?>
<!-- Created with Inkscape (http://www.inkscape.org/) -->

<svg
   version="1.1"
   id="svg1"
   width="880"
   height="880"
   viewBox="0 0 880 880"
   sodipodi:docname="panda-animal-publicdomainvectors.org.svg"
   inkscape:version="1.3.2 (091e20e, 2023-11-25, custom)"
   xmlns:inkscape="http://www.inkscape.org/namespaces/inkscape"
   xmlns:sodipodi="http://sodipodi.sourceforge.net/DTD/sodipodi-0.dtd"
   xmlns="http://www.w3.org/2000/svg"
   xmlns:svg="http://www.w3.org/2000/svg">
  <defs
     id="defs1">
    <clipPath
       clipPathUnits="userSpaceOnUse"
       id="clipPath3">
      <path
         d="M 0,660 H 660 V 0 H 0 Z"
         transform="translate(-330.82621,-103.64841)"
         id="path3" />
    </clipPath>
    <clipPath
       clipPathUnits="userSpaceOnUse"
       id="clipPath5">
      <path
         d="M 0,660 H 660 V 0 H 0 Z"
         transform="translate(-206.1289,-546.61132)"
         id="path5" />
    </clipPath>
    <clipPath
       clipPathUnits="userSpaceOnUse"
       id="clipPath7">
      <path
         d="M 0,660 H 660 V 0 H 0 Z"
         transform="translate(-264.30471,-586.92381)"
         id="path7" />
    </clipPath>
    <clipPath
       clipPathUnits="userSpaceOnUse"
       id="clipPath9">
      <path
         d="M 0,660 H 660 V 0 H 0 Z"
         transform="translate(-287.0557,-307.77341)"
         id="path9" />
    </clipPath>
    <clipPath
       clipPathUnits="userSpaceOnUse"
       id="clipPath11">
      <path
         d="M 0,660 H 660 V 0 H 0 Z"
         transform="translate(-287.2021,-506.35601)"
         id="path11" />
    </clipPath>
    <clipPath
       clipPathUnits="userSpaceOnUse"
       id="clipPath13">
      <path
         d="M 0,660 H 660 V 0 H 0 Z"
         transform="translate(-432.98341,-512.56252)"
         id="path13" />
    </clipPath>
    <clipPath
       clipPathUnits="userSpaceOnUse"
       id="clipPath15">
      <path
         d="M 0,660 H 660 V 0 H 0 Z"
         transform="translate(-350.45121,-286.8115)"
         id="path15" />
    </clipPath>
    <clipPath
       clipPathUnits="userSpaceOnUse"
       id="clipPath17">
      <path
         d="M 0,660 H 660 V 0 H 0 Z"
         transform="translate(-384.19241,-630.51122)"
         id="path17" />
    </clipPath>
    <clipPath
       clipPathUnits="userSpaceOnUse"
       id="clipPath19">
      <path
         d="M 0,660 H 660 V 0 H 0 Z"
         transform="translate(-317.71481,-525.52931)"
         id="path19" />
    </clipPath>
    <clipPath
       clipPathUnits="userSpaceOnUse"
       id="clipPath21">
      <path
         d="M 0,660 H 660 V 0 H 0 Z"
         transform="translate(-450.66991,-525.52931)"
         id="path21" />
    </clipPath>
    <clipPath
       clipPathUnits="userSpaceOnUse"
       id="clipPath23">
      <path
         d="M 0,660 H 660 V 0 H 0 Z"
         transform="translate(-384.19241,-432.14011)"
         id="path23" />
    </clipPath>
    <clipPath
       clipPathUnits="userSpaceOnUse"
       id="clipPath25">
      <path
         d="M 0,660 H 660 V 0 H 0 Z"
         transform="translate(-402.44921,-353.51661)"
         id="path25" />
    </clipPath>
    <clipPath
       clipPathUnits="userSpaceOnUse"
       id="clipPath27">
      <path
         d="M 0,660 H 660 V 0 H 0 Z"
         transform="translate(-384.19241,-412.30081)"
         id="path27" />
    </clipPath>
    <clipPath
       clipPathUnits="userSpaceOnUse"
       id="clipPath29">
      <path
         d="M 0,660 H 660 V 0 H 0 Z"
         transform="translate(-292.40821,-631.91412)"
         id="path29" />
    </clipPath>
    <clipPath
       clipPathUnits="userSpaceOnUse"
       id="clipPath31">
      <path
         d="M 0,660 H 660 V 0 H 0 Z"
         transform="translate(-326.46191,-495.95511)"
         id="path31" />
    </clipPath>
    <clipPath
       clipPathUnits="userSpaceOnUse"
       id="clipPath33">
      <path
         d="M 0,660 H 660 V 0 H 0 Z"
         transform="translate(-334.86521,-486.87651)"
         id="path33" />
    </clipPath>
    <clipPath
       clipPathUnits="userSpaceOnUse"
       id="clipPath35">
      <path
         d="M 0,660 H 660 V 0 H 0 Z"
         transform="translate(-438.63381,-495.95511)"
         id="path35" />
    </clipPath>
    <clipPath
       clipPathUnits="userSpaceOnUse"
       id="clipPath37">
      <path
         d="M 0,660 H 660 V 0 H 0 Z"
         transform="translate(-443.08401,-486.87651)"
         id="path37" />
    </clipPath>
  </defs>
  <sodipodi:namedview
     id="namedview1"
     pagecolor="#ffffff"
     bordercolor="#000000"
     borderopacity="0.25"
     inkscape:showpageshadow="2"
     inkscape:pageopacity="0.0"
     inkscape:pagecheckerboard="0"
     inkscape:deskcolor="#d1d1d1"
     inkscape:zoom="0.67272727"
     inkscape:cx="439.25676"
     inkscape:cy="440"
     inkscape:window-width="1440"
     inkscape:window-height="830"
     inkscape:window-x="-6"
     inkscape:window-y="-6"
     inkscape:window-maximized="1"
     inkscape:current-layer="g1">
    <inkscape:page
       x="0"
       y="0"
       inkscape:label="1"
       id="page1"
       width="880"
       height="880"
       margin="135.93733 140.72667 37.448002 142.92534"
       bleed="0" />
  </sodipodi:namedview>
  <g
     id="g1"
     inkscape:groupmode="layer"
     inkscape:label="1">
    <g
       id="group-MC0">
      <path
         id="path2"
         d="M 0,0 C 123.17,0 223.629,61.552 223.629,137.02 223.629,212.487 123.17,274.04 0,274.04 -123.171,274.04 -223.63,212.487 -223.63,137.02 -223.63,61.552 -123.171,0 0,0"
         style="fill:#6fbc3a;fill-opacity:1;fill-rule:evenodd;stroke:none"
         transform="matrix(1.3333333,0,0,-1.3333333,441.1016,741.80213)"
         clip-path="url(#clipPath3)" />
      <path
         id="path4"
         d="m 0,0 c -81.527,-38.18 -120.429,-144.366 -86.89,-237.174 16.744,-46.329 48.372,-80.567 85.997,-98.488 9.85,-4.693 20.783,-1.681 27.66,7.619 6.878,9.303 7.617,22.082 1.872,32.332 -5.039,8.988 -9.453,18.611 -13.142,28.819 -33.539,92.809 5.363,198.994 86.889,237.175 15.316,7.172 31.047,11.433 46.719,13.01 C 106.434,15.522 50.923,23.848 0,0"
         style="fill:#463d3b;fill-opacity:1;fill-rule:evenodd;stroke:none"
         transform="matrix(1.3333333,0,0,-1.3333333,274.83853,151.18493)"
         clip-path="url(#clipPath5)" />
      <path
         id="path6"
         d="m 0,0 c 74.403,0 126.604,-60.315 116.592,-134.719 -10.01,-74.404 -78.44,-134.72 -152.845,-134.72 -74.404,0 -126.604,60.316 -116.593,134.72 C -142.835,-60.315 -74.404,0 0,0"
         style="fill:#463d3b;fill-opacity:1;fill-rule:evenodd;stroke:none"
         transform="matrix(1.3333333,0,0,-1.3333333,352.40627,97.434933)"
         clip-path="url(#clipPath7)" />
      <path
         id="path8"
         d="m 0,0 c 81.66,0 148.265,66.604 148.265,148.267 0,81.662 -66.605,148.266 -148.265,148.266 -81.662,0 -148.268,-66.604 -148.268,-148.266 C -148.268,66.604 -81.662,0 0,0"
         style="fill:#d7c9c4;fill-opacity:1;fill-rule:evenodd;stroke:none"
         transform="matrix(1.3333333,0,0,-1.3333333,382.74093,469.63547)"
         clip-path="url(#clipPath9)" />
      <path
         id="path10"
         d="m 0,0 c -97.586,-45.702 -144.151,-172.806 -104.005,-283.897 20.041,-55.453 57.901,-96.437 102.937,-117.89 11.793,-5.617 24.877,-2.012 33.108,9.122 8.233,11.134 9.119,26.43 2.24,38.7 -6.031,10.76 -11.313,22.277 -15.73,34.496 -40.146,111.091 6.419,238.196 104.007,283.898 18.333,8.586 37.163,13.686 55.921,15.573 C 127.4,18.579 60.955,28.546 0,0"
         style="fill:#463d3b;fill-opacity:1;fill-rule:evenodd;stroke:none"
         transform="matrix(1.3333333,0,0,-1.3333333,382.93613,204.85867)"
         clip-path="url(#clipPath11)" />
      <path
         id="path12"
         d="m 0,0 c 88.296,-41.35 130.429,-156.353 94.104,-256.868 -18.131,-50.176 -52.389,-87.257 -93.137,-106.666 -10.669,-5.083 -22.509,-1.82 -29.957,8.252 -7.45,10.075 -8.251,23.915 -2.027,35.015 5.459,9.737 10.237,20.159 14.233,31.214 36.324,100.514 -5.807,215.517 -94.105,256.868 -16.588,7.769 -33.625,12.384 -50.596,14.091 C -115.273,16.811 -55.152,25.829 0,0"
         style="fill:#463d3b;fill-opacity:1;fill-rule:evenodd;stroke:none"
         transform="matrix(1.3333333,0,0,-1.3333333,577.3112,196.58333)"
         clip-path="url(#clipPath13)" />
      <path
         id="path14"
         d="m 0,0 c 81.662,0 148.266,66.604 148.266,148.266 0,81.663 -66.604,148.267 -148.266,148.267 -81.663,0 -148.267,-66.604 -148.267,-148.267 C -148.267,66.604 -81.663,0 0,0"
         style="fill:#463d3b;fill-opacity:1;fill-rule:evenodd;stroke:none"
         transform="matrix(1.3333333,0,0,-1.3333333,467.26827,497.58467)"
         clip-path="url(#clipPath15)" />
      <path
         id="path16"
         d="m 0,0 c 81.603,0 147.755,-71.862 147.755,-139.064 0,-67.202 -66.152,-104.297 -147.755,-104.297 -81.603,0 -147.754,37.095 -147.754,104.297 C -147.754,-71.862 -81.603,0 0,0"
         style="fill:#d7c9c4;fill-opacity:1;fill-rule:evenodd;stroke:none"
         transform="matrix(1.3333333,0,0,-1.3333333,512.25653,39.3184)"
         clip-path="url(#clipPath17)" />
      <path
         id="path18"
         d="m 0,0 5.139,1.368 c 19.958,5.311 36.286,-7.828 36.286,-29.199 0,-21.371 -16.328,-43.201 -36.286,-48.513 L 0,-77.711 c -19.958,-5.312 -36.286,7.827 -36.286,29.198 0,21.371 16.328,43.202 36.286,48.513"
         style="fill:#463d3b;fill-opacity:1;fill-rule:evenodd;stroke:none"
         transform="matrix(1.3333333,0,0,-1.3333333,423.61973,179.29427)"
         clip-path="url(#clipPath19)" />
      <path
         id="path20"
         d="m 0,0 -5.14,1.368 c -19.958,5.311 -36.286,-7.828 -36.286,-29.199 0,-21.371 16.328,-43.201 36.286,-48.513 L 0,-77.711 c 19.958,-5.312 36.286,7.827 36.286,29.198 C 36.286,-27.142 19.958,-5.311 0,0"
         style="fill:#463d3b;fill-opacity:1;fill-rule:evenodd;stroke:none"
         transform="matrix(1.3333333,0,0,-1.3333333,600.8932,179.29427)"
         clip-path="url(#clipPath21)" />
      <path
         id="path22"
         d="m 0,0 c 26.119,0 47.292,-16.366 47.292,-36.555 0,-15.213 -12.024,-28.252 -29.123,-33.758 -1.417,7.523 -9.011,13.267 -18.169,13.267 -9.158,0 -16.753,-5.744 -18.169,-13.267 -17.101,5.506 -29.123,18.545 -29.123,33.758 C -47.292,-16.366 -26.119,0 0,0"
         style="fill:#d7c9c4;fill-opacity:1;fill-rule:evenodd;stroke:none"
         transform="matrix(1.3333333,0,0,-1.3333333,512.25653,303.8132)"
         clip-path="url(#clipPath23)" />
      <path
         id="path24"
         d="m 0,0 c -1.158,-7.773 -8.891,-13.782 -18.257,-13.782 -9.367,0 -17.098,6.009 -18.257,13.782 5.328,-1.446 11.575,-2.279 18.257,-2.279 6.682,0 12.93,0.833 18.257,2.279"
         style="fill:#d7c9c4;fill-opacity:1;fill-rule:evenodd;stroke:none"
         transform="matrix(1.3333333,0,0,-1.3333333,536.59893,408.64453)"
         clip-path="url(#clipPath25)" />
      <path
         id="path26"
         d="M 0,0 C 7.377,0 13.925,-3.555 18.022,-9.044 9.853,-10.043 3.037,-15.425 0,-22.767 -3.037,-15.425 -9.853,-10.043 -18.022,-9.044 -13.925,-3.555 -7.378,0 0,0"
         style="fill:#463d3b;fill-opacity:1;fill-rule:evenodd;stroke:none"
         transform="matrix(1.3333333,0,0,-1.3333333,512.25653,330.2656)"
         clip-path="url(#clipPath27)" />
      <path
         id="path28"
         d="m 0,0 c -26.825,0 -48.57,-21.745 -48.57,-48.57 0,-20.085 12.192,-37.324 29.581,-44.717 4.223,-1.796 8.605,-1.58 12.631,0.624 4.026,2.202 6.571,5.777 7.336,10.303 2.624,15.541 16.042,27.417 32.274,27.652 4.583,0.066 8.499,2.031 11.29,5.666 2.789,3.634 3.678,7.925 2.56,12.368 C 41.796,-15.601 22.72,0 0,0 m 183.568,0 c 26.824,0 48.571,-21.745 48.571,-48.57 0,-20.085 -12.195,-37.324 -29.581,-44.717 -4.224,-1.796 -8.606,-1.58 -12.632,0.624 -4.026,2.202 -6.571,5.777 -7.334,10.303 -2.627,15.541 -16.044,27.417 -32.276,27.652 -4.584,0.066 -8.5,2.031 -11.29,5.666 -2.791,3.634 -3.678,7.925 -2.56,12.368 C 141.771,-15.601 160.848,0 183.568,0"
         style="fill:#463d3b;fill-opacity:1;fill-rule:evenodd;stroke:none"
         transform="matrix(1.3333333,0,0,-1.3333333,389.8776,37.447867)"
         clip-path="url(#clipPath29)" />
      <path
         id="path30"
         d="m 0,0 2.097,0.559 c 8.145,2.167 14.809,-3.194 14.809,-11.915 v -0.002 c 0,-8.722 -6.664,-17.629 -14.809,-19.797 L 0,-31.713 c -8.145,-2.167 -14.809,3.194 -14.809,11.916 v 0.001 c 0,8.72 6.664,17.629 14.809,19.796"
         style="fill:#282221;fill-opacity:1;fill-rule:evenodd;stroke:none"
         transform="matrix(1.3333333,0,0,-1.3333333,435.28253,218.72653)"
         clip-path="url(#clipPath31)" />
      <path
         id="path32"
         d="M 0,0 0.682,0.182 C 3.33,0.887 5.497,-0.857 5.497,-3.692 v -10e-4 c 0,-2.837 -2.167,-5.733 -4.815,-6.438 L 0,-10.313 c -2.648,-0.705 -4.815,1.039 -4.815,3.875 v 10e-4 c 0,2.835 2.167,5.732 4.815,6.437"
         style="fill:#d7c9c4;fill-opacity:1;fill-rule:evenodd;stroke:none"
         transform="matrix(1.3333333,0,0,-1.3333333,446.48693,230.83133)"
         clip-path="url(#clipPath33)" />
      <path
         id="path34"
         d="m 0,0 -2.099,0.559 c -8.145,2.167 -14.807,-3.194 -14.807,-11.915 v -0.002 c 0,-8.722 6.662,-17.629 14.807,-19.797 L 0,-31.713 c 8.143,-2.167 14.807,3.194 14.807,11.916 v 0.001 C 14.807,-11.076 8.143,-2.167 0,0"
         style="fill:#282221;fill-opacity:1;fill-rule:evenodd;stroke:none"
         transform="matrix(1.3333333,0,0,-1.3333333,584.84507,218.72653)"
         clip-path="url(#clipPath35)" />
      <path
         id="path36"
         d="m 0,0 -0.685,0.182 c -2.647,0.705 -4.814,-1.039 -4.814,-3.874 v -10e-4 c 0,-2.837 2.167,-5.733 4.814,-6.438 L 0,-10.313 c 2.647,-0.705 4.814,1.039 4.814,3.875 v 10e-4 C 4.814,-3.602 2.647,-0.705 0,0"
         style="fill:#d7c9c4;fill-opacity:1;fill-rule:evenodd;stroke:none"
         transform="matrix(1.3333333,0,0,-1.3333333,590.77867,230.83133)"
         clip-path="url(#clipPath37)" />
    </g>
  </g>
</svg>
